<svg width="392" height="392" viewBox="0 0 392 392" fill="none" xmlns="http://www.w3.org/2000/svg">
<path d="M52.4453 375.551L195.779 140.885L339.112 375.551H261.112L195.779 270.885L132.445 375.551H52.4453Z" fill="white"/>
<path d="M372.221 192.665V375.555L299.781 262.795V192.665C299.781 135.595 253.521 89.3253 196.451 89.3253C167.921 89.3253 142.081 100.895 123.381 119.595C104.681 138.295 93.1113 164.125 93.1113 192.665V261.405L19.7812 375.555V192.665C19.7813 95.3353 98.6813 16.4453 196.001 16.4453C244.661 16.4453 288.721 36.1653 320.611 68.0553C352.501 99.9453 372.221 144.005 372.221 192.665Z" fill="white"/>
</svg>
