<svg width="100" height="100" viewBox="0 0 100 100" fill="none" xmlns="http://www.w3.org/2000/svg">
<path d="M13.3789 95.8034L49.9435 35.9395L86.5082 95.8034H66.6102L49.9435 69.1027L33.7871 95.8034H13.3789Z" fill="#EF382E"/>
<path d="M94.955 49.1494V95.805L76.4754 67.0397V49.1494C76.4754 34.5907 64.6744 22.7872 50.1157 22.7872C42.8377 22.7872 36.2459 25.7387 31.4754 30.5091C26.705 35.2795 23.7535 41.8688 23.7535 49.1494V66.6851L5.04688 95.805V49.1494C5.04688 24.3203 25.1744 4.19531 50.0009 4.19531C62.4142 4.19531 73.654 9.22593 81.7892 17.3611C89.9244 25.4963 94.955 36.7361 94.955 49.1494Z" fill="#2E353E"/>
</svg>
