<svg width="392" height="98" viewBox="0 0 392 98" fill="none" xmlns="http://www.w3.org/2000/svg">
<path d="M215.598 79.9366H223.014V82.84H212V60.9067H215.598V79.9366Z" fill="white"/>
<path d="M247.779 78.3579H238.595L237.017 82.8393H233.262L241.12 60.8745H245.286L253.144 82.8393H249.357L247.779 78.3579ZM246.769 75.423L243.203 65.2298L239.605 75.423H246.769Z" fill="white"/>
<path d="M279.851 73.4355C280.672 74.4665 281.082 75.6344 281.082 76.9386C281.082 78.0539 280.793 79.0583 280.214 79.9524C279.635 80.8468 278.799 81.5516 277.705 82.0668C276.611 82.5826 275.338 82.84 273.887 82.84H265.113V60.9067H273.476C274.97 60.9067 276.254 61.1591 277.327 61.6642C278.4 62.169 279.209 62.8476 279.757 63.6997C280.303 64.5518 280.577 65.504 280.577 66.5558C280.577 67.818 280.24 68.8705 279.567 69.7115C278.894 70.5532 277.989 71.1741 276.853 71.5735C278.031 71.7843 279.031 72.4048 279.851 73.4355ZM268.711 70.122H273.161C274.339 70.122 275.26 69.8535 275.922 69.3172C276.585 68.7805 276.916 68.0073 276.916 66.9974C276.916 66.0087 276.585 65.2358 275.922 64.678C275.26 64.1209 274.339 63.8417 273.161 63.8417H268.711V70.122ZM276.443 79.0214C277.137 78.4328 277.484 77.6122 277.484 76.5597C277.484 75.4867 277.116 74.6346 276.38 74.0037C275.643 73.3724 274.665 73.0569 273.445 73.0569H268.711V79.9051H273.571C274.791 79.9051 275.749 79.6107 276.443 79.0214Z" fill="white"/>
<path d="M296.799 82.2868C295.62 81.7717 294.695 81.0404 294.022 80.0936C293.348 79.1469 293.012 78.0424 293.012 76.7801H296.862C296.946 77.7269 297.319 78.5055 297.982 79.1153C298.645 79.7258 299.576 80.0305 300.775 80.0305C302.016 80.0305 302.984 79.7308 303.678 79.1311C304.373 78.5313 304.72 77.7584 304.72 76.8117C304.72 76.0753 304.504 75.4756 304.073 75.0128C303.642 74.5503 303.105 74.1922 302.464 73.9398C301.822 73.6871 300.933 73.4139 299.797 73.1193C298.366 72.7403 297.203 72.3568 296.309 71.9674C295.415 71.5781 294.653 70.9734 294.022 70.1528C293.39 69.3322 293.075 68.2385 293.075 66.8705C293.075 65.6083 293.39 64.5038 294.022 63.557C294.653 62.6102 295.537 61.8843 296.673 61.3792C297.809 60.8744 299.123 60.6221 300.617 60.6221C302.742 60.6221 304.483 61.1533 305.84 62.2155C307.197 63.2785 307.949 64.7353 308.097 66.5866H304.12C304.057 65.7871 303.678 65.1031 302.984 64.5353C302.29 63.9671 301.375 63.6832 300.239 63.6832C299.207 63.6832 298.366 63.9463 297.714 64.4722C297.062 64.9981 296.736 65.7556 296.736 66.7443C296.736 67.4179 296.941 67.9703 297.351 68.4012C297.761 68.8325 298.282 69.1745 298.913 69.4269C299.544 69.6792 300.407 69.9531 301.501 70.2474C302.953 70.6471 304.136 71.0472 305.051 71.4466C305.967 71.8466 306.745 72.4618 307.387 73.2928C308.028 74.1241 308.349 75.2336 308.349 76.622C308.349 77.7376 308.05 78.7894 307.45 79.7781C306.85 80.7672 305.977 81.5613 304.83 82.1606C303.683 82.7604 302.332 83.0601 300.775 83.0601C299.302 83.0601 297.977 82.8027 296.799 82.2868Z" fill="white"/>
<path d="M149.432 37.9629H136.507L134.286 44.2702H129L140.06 13.355H145.924L156.983 44.2702H151.653L149.432 37.9629ZM148.011 33.8321L142.992 19.485L137.928 33.8321H148.011Z" fill="white"/>
<path d="M179.187 44.2706L172.081 31.9223H168.216V44.2706H163.152V13.3999H173.813C176.182 13.3999 178.188 13.8151 179.832 14.6438C181.475 15.4731 182.703 16.5835 183.518 17.9751C184.332 19.3671 184.74 20.9219 184.74 22.639C184.74 24.6531 184.155 26.4811 182.985 28.1245C181.815 29.7679 180.016 30.8861 177.588 31.4783L185.228 44.2706H179.187ZM168.216 27.8802H173.813C175.708 27.8802 177.137 27.4069 178.099 26.459C179.061 25.5114 179.543 24.2379 179.543 22.639C179.543 21.0398 179.069 19.7891 178.121 18.8857C177.173 17.9826 175.737 17.5307 173.813 17.5307H168.216V27.8802Z" fill="white"/>
<path d="M193.024 20.6402C194.43 18.2415 196.34 16.3691 198.754 15.0212C201.167 13.6741 203.81 13 206.683 13C209.97 13 212.894 13.8073 215.455 15.4208C218.016 17.0353 219.875 19.323 221.03 22.2836H214.944C214.145 20.6555 213.035 19.4409 211.613 18.6414C210.192 17.8416 208.548 17.442 206.683 17.442C204.639 17.442 202.818 17.9014 201.219 18.8191C199.62 19.7371 198.369 21.0551 197.466 22.7722C196.562 24.49 196.111 26.4889 196.111 28.7687C196.111 31.0491 196.562 33.048 197.466 34.7651C198.369 36.4829 199.62 37.8077 201.219 38.7407C202.818 39.6733 204.639 40.1398 206.683 40.1398C208.548 40.1398 210.192 39.7399 211.613 38.9404C213.035 38.141 214.145 36.927 214.944 35.2982H221.03C219.875 38.2596 218.016 40.5393 215.455 42.1386C212.894 43.7375 209.97 44.537 206.683 44.537C203.78 44.537 201.13 43.8639 198.732 42.5161C196.333 41.1689 194.43 39.2958 193.024 36.8971C191.617 34.4987 190.914 31.7891 190.914 28.7687C190.914 25.7482 191.617 23.0386 193.024 20.6402Z" fill="white"/>
<path d="M252.968 13.3999V44.2706H247.905V30.7675H233.38V44.2706H228.316V13.3999H233.38V26.6367H247.905V13.3999L252.968 13.3999Z" fill="white"/>
<path d="M281.485 27.0362C280.744 28.4286 279.559 29.5613 277.931 30.4342C276.302 31.3081 274.215 31.7446 271.668 31.7446H266.072V44.2706H261.008V13.3999H271.668C274.037 13.3999 276.043 13.8073 277.687 14.6213C279.33 15.4361 280.559 16.539 281.373 17.9306C282.188 19.323 282.595 20.8774 282.595 22.5945C282.595 24.1646 282.225 25.6449 281.485 27.0362ZM275.977 26.3034C276.924 25.4302 277.398 24.1935 277.398 22.5945C277.398 19.2187 275.488 17.5307 271.668 17.5307H266.072V27.6138H271.668C273.593 27.6138 275.029 27.1772 275.977 26.3034Z" fill="white"/>
<path d="M294.965 42.5606C292.551 41.2134 290.641 39.3332 289.235 36.9195C287.828 34.5062 287.125 31.7891 287.125 28.7687C287.125 25.7482 287.828 23.0386 289.235 20.6402C290.641 18.2415 292.551 16.3691 294.965 15.0212C297.378 13.6741 300.021 13 302.894 13C305.795 13 308.453 13.6741 310.866 15.0212C313.28 16.3691 315.182 18.2415 316.574 20.6402C317.966 23.0386 318.662 25.7482 318.662 28.7687C318.662 31.7891 317.966 34.5062 316.574 36.9195C315.182 39.3332 313.28 41.2134 310.866 42.5606C308.453 43.9084 305.795 44.5815 302.894 44.5815C300.021 44.5815 297.378 43.9084 294.965 42.5606ZM308.357 38.7848C309.956 37.8522 311.207 36.5196 312.11 34.7872C313.013 33.0551 313.465 31.0492 313.465 28.7687C313.465 26.4889 313.013 24.4901 312.11 22.7722C311.207 21.0551 309.956 19.7371 308.357 18.8191C306.758 17.9014 304.937 17.4421 302.894 17.4421C300.85 17.4421 299.029 17.9014 297.43 18.8191C295.831 19.7371 294.58 21.0551 293.677 22.7722C292.773 24.4901 292.322 26.4889 292.322 28.7687C292.322 31.0492 292.773 33.0551 293.677 34.7872C294.58 36.5196 295.831 37.8522 297.43 38.7848C299.029 39.7178 300.85 40.184 302.894 40.184C304.937 40.184 306.758 39.7178 308.357 38.7848Z" fill="white"/>
<path d="M330.079 13.3999V44.2706H325.016V13.3999L330.079 13.3999Z" fill="white"/>
<path d="M363.484 44.2702H358.42L343.185 21.2171V44.2702H338.121V13.355H343.185L358.42 36.3636V13.355H363.484V44.2702Z" fill="white"/>
<path d="M391.464 13.3999V17.5307H383.247V44.2706H378.184V17.5307H369.922V13.3999L391.464 13.3999Z" fill="white"/>
<path d="M9.55859 97.6955L48.3034 34.2622L87.0482 97.6955H65.9638L48.3034 69.4028L31.1836 97.6955H9.55859Z" fill="white"/>
<path d="M95.9994 48.2585V97.6959L76.418 67.2155V48.2585C76.418 32.8318 63.9133 20.3244 48.4866 20.3244C40.7746 20.3244 33.7897 23.4519 28.7348 28.5068C23.68 33.5616 20.5525 40.5438 20.5525 48.2585V66.8398L0.730469 97.6959V48.2585C0.730469 21.949 22.0581 0.624023 48.3649 0.624023C61.5183 0.624023 73.4283 5.95459 82.0486 14.5748C90.6688 23.1951 95.9994 35.1051 95.9994 48.2585Z" fill="white"/>
</svg>
