<?xml version="1.0" encoding="UTF-8"?>
<svg id="Layer_2" xmlns="http://www.w3.org/2000/svg" version="1.1" viewBox="0 0 392 392">
  <!-- Generator: Adobe Illustrator 29.7.1, SVG Export Plug-In . SVG Version: 2.1.1 Build 8)  -->
  <polygon points="52.4466972 375.5516663 195.7800293 140.8850098 339.1133728 375.5516663 261.1133728 375.5516663 195.7800293 270.8850098 132.446701 375.5516663 52.4466972 375.5516663" fill="#ef382e"/>
  <path d="M372.2199707,192.6650391v182.8899536l-72.4399414-112.7600098v-70.1299438c0-57.0700073-46.2600098-103.3400269-103.3300171-103.3400269-28.5299683,0-54.3699951,11.5700073-73.0700073,30.2700195-18.6999512,18.6999512-30.2699585,44.5299683-30.2699585,73.0700073v68.7399902l-73.3300171,114.1499634v-182.8899536C19.7800293,95.335022,98.6800537,16.4450073,196,16.4450073c48.6600342,0,92.7199707,19.7200317,124.6101074,51.6099854,31.8898926,31.8900146,51.6098633,75.9500122,51.6098633,124.6100464Z" fill="#2e353e"/>
</svg>