<?xml version="1.0" encoding="UTF-8"?>
<svg id="Layer_2" xmlns="http://www.w3.org/2000/svg" version="1.1" viewBox="0 0 792 640">
  <!-- Generator: Adobe Illustrator 29.7.1, SVG Export Plug-In . SVG Version: 2.1.1 Build 8)  -->
  <polygon points="246.5521698 376.2138062 389.885498 141.5471497 533.218811 376.2138062 455.2188416 376.2138062 389.885498 271.5471497 326.5521545 376.2138062 246.5521698 376.2138062" fill="#ef382e"/>
  <path d="M566.3254395,193.327179v182.8899536l-72.4399414-112.7600098v-70.1299438c0-57.0700073-46.2600098-103.3400269-103.3300171-103.3400269-28.5299683,0-54.3699951,11.5700073-73.0700073,30.2700195-18.6999512,18.6999512-30.2699585,44.5299683-30.2699585,73.0700073v68.7399902l-73.3300171,114.1499634v-182.8899536c0-97.3300171,78.9000244-176.2200317,176.2199707-176.2200317,48.6600342,0,92.7199707,19.7200317,124.6101074,51.6099854,31.8898926,31.8900146,51.6098633,75.9500122,51.6098633,124.6100464Z" fill="#2e353e"/>
  <g>
    <path d="M77.5275879,504.8000793h-37.1513672l-6.3837891,18.1288757h-15.1923828l31.7900391-88.8583984h16.8525391l31.7890625,88.8583984h-15.3203125l-6.3837891-18.1289062v.0000305ZM73.442627,492.9270325l-14.4267578-41.2373047-14.5546875,41.2373047h28.9814453Z" fill="#2e353e"/>
    <path d="M163.0666504,522.9290161l-20.4267578-35.4921875h-11.1074219v35.4921875h-14.5546875v-88.7304688h30.640625c6.8085938,0,12.5751953,1.1933594,17.2998047,3.5751953,4.7236328,2.3837891,8.2539062,5.5751953,10.5957031,9.5751953,2.3408203,4.0009766,3.5117188,8.4697266,3.5117188,13.4052734,0,5.7890625-1.6816406,11.0429688-5.0429688,15.7666016-3.3632812,4.7236328-8.5341797,7.9375-15.5117188,9.6396484l21.9589844,36.7685547h-17.3632812ZM131.5324707,475.818634h16.0859375c5.4462891,0,9.5537109-1.3603516,12.3203125-4.0849609,2.7646484-2.7236328,4.1494141-6.3837891,4.1494141-10.9794922,0-4.5966797-1.3623047-8.1914062-4.0859375-10.7880859-2.7246094-2.5957031-6.8515625-3.8945312-12.3837891-3.8945312h-16.0859375v29.7470703Z" fill="#2e353e"/>
    <path d="M202.8361816,455.0090637c4.0419922-6.8945312,9.53125-12.2763672,16.4697266-16.1503906,6.9355469-3.8720703,14.5322266-5.8095703,22.7890625-5.8095703,9.4472656,0,17.8515625,2.3203125,25.2148438,6.9580078,7.3603516,4.640625,12.703125,11.2158203,16.0224609,19.7255859h-17.4912109c-2.2978516-4.6796875-5.4892578-8.1708984-9.5751953-10.46875-4.0849609-2.2988281-8.8095703-3.4472656-14.1708984-3.4472656-5.8730469,0-11.1074219,1.3203125-15.7041016,3.9580078-4.5957031,2.6386719-8.1923828,6.4267578-10.7880859,11.3623047-2.5966797,4.9375-3.8935547,10.6826172-3.8935547,17.2353516,0,6.5546875,1.296875,12.2998047,3.8935547,17.2353516,2.5957031,4.9375,6.1923828,8.7451172,10.7880859,11.4267578,4.5966797,2.6806641,9.8310547,4.0214844,15.7041016,4.0214844,5.3613281,0,10.0859375-1.1494141,14.1708984-3.4472656,4.0859375-2.2978516,7.2773438-5.7871094,9.5751953-10.46875h17.4912109c-3.3193359,8.5117188-8.6621094,15.0644226-16.0224609,19.6611023-7.3632812,4.5957031-15.7675781,6.8935547-25.2148438,6.8935547-8.3427734,0-15.9589844-1.9345703-22.8535156-5.8085938-6.8935547-3.8720703-12.3632812-9.2558594-16.4052734-16.1503906-4.0439453-6.8935547-6.0644531-14.6816406-6.0644531-23.3632812s2.0205078-16.4697266,6.0644531-23.3632812v.0000305Z" fill="#2e353e"/>
    <path d="M375.1262207,434.1985168v88.7304382h-14.5537109v-38.8115234h-41.7480469v38.8115234h-14.5546875v-88.7304688h14.5546875v38.0458984h41.7480469v-38.0458984h14.5537109v.0000305Z" fill="#2e353e"/>
    <path d="M457.0905762,473.3928528c-2.1279297,4.0019531-5.5332031,7.2578125-10.2128906,9.7666016-4.6826172,2.5117188-10.6826172,3.7666016-18.0019531,3.7666016h-16.0859375v36.0028992h-14.5546875v-88.7304688h30.640625c6.8085938,0,12.5751953,1.1708984,17.2998047,3.5107422,4.7236328,2.3417969,8.2539062,5.5117188,10.5957031,9.5117188,2.3408203,4.0019531,3.5117188,8.4697266,3.5117188,13.4052734,0,4.5126953-1.0654297,8.7675781-3.1923828,12.7666016v.0000305ZM441.2595215,471.2864075c2.7236328-2.5097656,4.0859375-6.0644531,4.0859375-10.6601562,0-9.703125-5.4902344-14.5546875-16.4697266-14.5546875h-16.0859375v28.9814453h16.0859375c5.5322266,0,9.6591797-1.2548828,12.3837891-3.7666016Z" fill="#2e353e"/>
    <path d="M495.838623,518.013916c-6.9384766-3.8720703-12.4277344-9.2763672-16.4697266-16.2138672-4.0439453-6.9365234-6.0644531-14.7460938-6.0644531-23.4277344s2.0205078-16.4697266,6.0644531-23.3632812c4.0419922-6.8945312,9.53125-12.2763672,16.4697266-16.1503906,6.9355469-3.8720703,14.5322266-5.8095703,22.7890625-5.8095703,8.3398438,0,15.9785156,1.9375,22.9160156,5.8095703,6.9365234,3.8740234,12.4042969,9.2558594,16.40625,16.1503906,3.9990234,6.8935547,6,14.6816406,6,23.3632812s-2.0009766,16.4912109-6,23.4277344c-4.0019531,6.9375-9.4697266,12.3417969-16.40625,16.2138672-6.9375,3.8740234-14.5761719,5.8085938-22.9160156,5.8085938-8.2568359,0-15.8535156-1.9345703-22.7890625-5.8085938ZM534.3308105,507.1614075c4.5957031-2.6806641,8.1904297-6.5107422,10.7880859-11.4902344,2.5947266-4.9785156,3.8935547-10.7441406,3.8935547-17.2988281,0-6.5527344-1.2988281-12.2978516-3.8935547-17.2353516-2.5976562-4.9355469-6.1923828-8.7236328-10.7880859-11.3623047-4.5966797-2.6376953-9.8310547-3.9580078-15.703125-3.9580078-5.8730469,0-11.1074219,1.3203125-15.7041016,3.9580078-4.5957031,2.6386719-8.1923828,6.4267578-10.7880859,11.3623047-2.5966797,4.9375-3.8935547,10.6826172-3.8935547,17.2353516,0,6.5546875,1.296875,12.3203125,3.8935547,17.2988281,2.5957031,4.9794922,6.1923828,8.8095703,10.7880859,11.4902344,4.5966797,2.6816406,9.8310547,4.0214844,15.7041016,4.0214844,5.8720703,0,11.1064453-1.3398438,15.703125-4.0214844Z" fill="#2e353e"/>
    <path d="M596.7614746,434.1985168v88.7304382h-14.5546875v-88.7304688h14.5546875v.0000305Z" fill="#2e353e"/>
    <path d="M692.7683105,522.9290161h-14.5546875l-43.7900391-66.2607422v66.2607422h-14.5546875v-88.8583984h14.5546875l43.7900391,66.1328125v-66.1328125h14.5546875v88.8583984Z" fill="#2e353e"/>
    <path d="M773.1999512,434.1985168v11.8730469h-23.6181641v76.8573914h-14.5546875v-76.8574219h-23.7460938v-11.8730469h61.9189453v.0000305Z" fill="#2e353e"/>
  </g>
  <g>
    <path d="M269.9597168,614.3821411h20.2026367v7.9091797h-30.003418v-59.7490234h9.8007812v51.8398438Z" fill="#2e353e"/>
    <path d="M357.6486816,610.083313h-25.0175781l-4.2983398,12.2080078h-10.2304688l21.4067383-59.8349609h11.3476562l21.4067383,59.8349609h-10.3164062l-4.2983398-12.2080078ZM354.8977051,602.0881958l-9.7148438-27.7675781-9.800293,27.7675781h19.5151367Z" fill="#2e353e"/>
    <path d="M444.9938965,596.6721802c2.2353516,2.8085938,3.3525391,5.9902344,3.3525391,9.5429688,0,3.0380859-.7880859,5.7744141-2.3642578,8.2099609-1.5771484,2.4365234-3.8544922,4.3564453-6.8339844,5.7597656-2.9814453,1.4052734-6.4482422,2.1064453-10.4023438,2.1064453h-23.9003906v-59.7490234h22.7822266c4.0693359,0,7.5654297.6875,10.4882812,2.0634766,2.9228516,1.375,5.1289062,3.2236328,6.6201172,5.5449219,1.4892578,2.3212891,2.2353516,4.9150391,2.2353516,7.7802734,0,3.4384766-.9179688,6.3056641-2.7509766,8.5966797-1.8349609,2.2929688-4.2988281,3.984375-7.3935547,5.0722656,3.2089844.5742188,5.9316406,2.2646484,8.1669922,5.0722656ZM414.6462402,587.645813h12.1220703c3.2089844,0,5.7167969-.7314453,7.5224609-2.1923828,1.8056641-1.4619141,2.7080078-3.5683594,2.7080078-6.3193359,0-2.6933594-.9023438-4.7988281-2.7080078-6.3183594-1.8056641-1.5175781-4.3134766-2.2783203-7.5224609-2.2783203h-12.1220703v17.1083984ZM435.7087402,611.888916c1.8916016-1.6035156,2.8369141-3.8388672,2.8369141-6.7060547,0-2.9228516-1.0029297-5.2441406-3.0087891-6.9628906-2.0068359-1.7197266-4.671875-2.5791016-7.9951172-2.5791016h-12.8955078v18.6552734h13.2392578c3.3232422,0,5.9326172-.8017578,7.8232422-2.4072266Z" fill="#2e353e"/>
    <path d="M491.1599121,620.786438c-3.2109375-1.4033203-5.7314453-3.3955078-7.5654297-5.9746094-1.8349609-2.5791016-2.7509766-5.5878906-2.7509766-9.0263672h10.4882812c.2285156,2.5791016,1.2460938,4.7001953,3.0517578,6.3613281,1.8056641,1.6630859,4.3417969,2.4931641,7.6083984,2.4931641,3.3808594,0,6.0175781-.8164062,7.9091797-2.4501953s2.8369141-3.7392578,2.8369141-6.3183594c0-2.0058594-.5878906-3.6396484-1.7617188-4.9003906-1.1757812-1.2597656-2.6376953-2.2353516-4.3847656-2.9228516-1.7490234-.6884766-4.1699219-1.4326172-7.2646484-2.2353516-3.8984375-1.0322266-7.0644531-2.0771484-9.5-3.1376953-2.4365234-1.0605469-4.5126953-2.7080078-6.2324219-4.9433594s-2.5791016-5.2148438-2.5791016-8.9414062c0-3.4384766.859375-6.4472656,2.5791016-9.0263672s4.1269531-4.5566406,7.2216797-5.9326172c3.0947266-1.375,6.6757812-2.0625,10.7460938-2.0625,5.7880859,0,10.53125,1.4472656,14.2275391,4.3408203,3.6972656,2.8955078,5.7451172,6.8642578,6.1474609,11.9072266h-10.8320312c-.171875-2.1777344-1.2041016-4.0410156-3.0957031-5.5878906-1.890625-1.5478516-4.3837891-2.3212891-7.4785156-2.3212891-2.8095703,0-5.1025391.7167969-6.8779297,2.1494141-1.7773438,1.4326172-2.6650391,3.4960938-2.6650391,6.1894531,0,1.8349609.5585938,3.3398438,1.6757812,4.5136719,1.1181641,1.1748047,2.5361328,2.1064453,4.2558594,2.7939453s4.0693359,1.4335938,7.0498047,2.2353516c3.9541016,1.0888672,7.1787109,2.1787109,9.671875,3.2666016,2.4931641,1.0898438,4.6123047,2.765625,6.3613281,5.0292969,1.7480469,2.2646484,2.6220703,5.2871094,2.6220703,9.0693359,0,3.0390625-.8164062,5.9042969-2.4501953,8.5976562-1.6337891,2.6943359-4.0126953,4.8574219-7.1357422,6.4902344-3.1240234,1.6337891-6.8056641,2.4501953-11.046875,2.4501953-4.0126953,0-7.6230469-.7011719-10.8320312-2.1064453Z" fill="#2e353e"/>
  </g>
</svg>