<svg width="1531" height="368" viewBox="0 0 1531 368" fill="none" xmlns="http://www.w3.org/2000/svg">
<g filter="url(#filter0_d_20_22)">
<path d="M37.5522 359.214L180.886 124.547L324.219 359.214H246.219L180.886 254.547L117.552 359.214H37.5522Z" fill="white"/>
<path d="M357.325 176.327V359.217L284.885 246.457V176.327C284.885 119.257 238.625 72.9872 181.555 72.9872C153.026 72.9872 127.185 84.5572 108.485 103.257C89.7855 121.957 78.2155 147.787 78.2155 176.327V245.067L4.8855 359.217V176.327C4.8855 78.9972 83.7855 0.107178 181.105 0.107178C229.766 0.107178 273.825 19.8272 305.716 51.7172C337.605 83.6072 357.325 127.667 357.325 176.327Z" fill="white"/>
<path d="M552.309 151.456H500.295L491.357 176.837H470.087L514.595 52.4301H538.189L582.696 176.837H561.246L552.309 151.456ZM546.589 134.833L526.391 77.098L506.014 134.833H546.589Z" fill="white"/>
<path d="M672.068 176.837L643.47 127.146H627.919V176.837H607.541V52.6093H650.44C659.972 52.6093 668.046 54.28 674.661 57.6147C681.274 60.9522 686.217 65.4203 689.495 71.0206C692.773 76.6222 694.412 82.8787 694.412 89.7888C694.412 97.8938 692.058 105.25 687.351 111.863C682.643 118.476 675.403 122.976 665.634 125.359L696.378 176.837L672.068 176.837ZM627.919 110.88H650.44C658.065 110.88 663.816 108.975 667.689 105.161C671.56 101.347 673.499 96.223 673.499 89.7888C673.499 83.3531 671.591 78.3203 667.778 74.6848C663.963 71.0507 658.185 69.2322 650.44 69.2322H627.919V110.88Z" fill="white"/>
<path d="M727.748 81.7452C733.407 72.0925 741.092 64.5576 750.807 59.1337C760.517 53.7126 771.153 51 782.713 51C795.939 51 807.706 54.2486 818.015 60.7416C828.32 67.2388 835.8 76.4444 840.447 88.3586H815.959C812.741 81.8068 808.273 76.9189 802.553 73.7017C796.834 70.4832 790.219 68.8754 782.713 68.8754C774.49 68.8754 767.162 70.7239 760.726 74.4168C754.292 78.1111 749.256 83.4146 745.622 90.3247C741.987 97.2375 740.171 105.281 740.171 114.455C740.171 123.632 741.987 131.676 745.622 138.586C749.256 145.499 754.292 150.829 760.726 154.584C767.162 158.337 774.49 160.214 782.713 160.214C790.219 160.214 796.834 158.605 802.553 155.388C808.273 152.171 812.741 147.286 815.959 140.731H840.447C835.8 152.648 828.32 161.822 818.015 168.258C807.706 174.692 795.939 177.909 782.713 177.909C771.032 177.909 760.369 175.201 750.716 169.777C741.065 164.356 733.407 156.818 727.748 147.165C722.086 137.514 719.257 126.61 719.257 114.455C719.257 102.3 722.086 91.3966 727.748 81.7452Z" fill="white"/>
<path d="M968.964 52.6093V176.837H948.588V122.499H890.139V176.837H869.761V52.6093H890.139V105.876H948.588V52.6093H968.964Z" fill="white"/>
<path d="M1083.72 107.484C1080.74 113.087 1075.97 117.645 1069.42 121.157C1062.86 124.674 1054.46 126.431 1044.22 126.431H1021.7V176.837H1001.32V52.6093H1044.22C1053.75 52.6093 1061.82 54.2486 1068.44 57.5245C1075.05 60.8032 1079.99 65.2412 1083.27 70.8415C1086.55 76.4444 1088.19 82.6996 1088.19 89.6096C1088.19 95.9277 1086.7 101.885 1083.72 107.484ZM1061.55 104.534C1065.37 101.021 1067.28 96.0439 1067.28 89.6096C1067.28 76.0247 1059.59 69.2322 1044.22 69.2322H1021.7V109.808H1044.22C1051.96 109.808 1057.74 108.051 1061.55 104.534Z" fill="white"/>
<path d="M1137.97 169.956C1128.25 164.535 1120.57 156.968 1114.91 147.255C1109.25 137.544 1106.42 126.61 1106.42 114.455C1106.42 102.3 1109.25 91.3966 1114.91 81.7452C1120.57 72.0925 1128.25 64.5576 1137.97 59.1337C1147.68 53.7126 1158.31 51 1169.87 51C1181.55 51 1192.25 53.7126 1201.96 59.1337C1211.67 64.5576 1219.33 72.0925 1224.93 81.7452C1230.53 91.3966 1233.33 102.3 1233.33 114.455C1233.33 126.61 1230.53 137.544 1224.93 147.255C1219.33 156.968 1211.67 164.535 1201.96 169.956C1192.25 175.38 1181.55 178.088 1169.87 178.088C1158.31 178.088 1147.68 175.38 1137.97 169.956ZM1191.86 154.762C1198.29 151.009 1203.33 145.646 1206.96 138.675C1210.6 131.704 1212.42 123.632 1212.42 114.455C1212.42 105.281 1210.6 97.2375 1206.96 90.3247C1203.33 83.4146 1198.29 78.1111 1191.86 74.4168C1185.42 70.7239 1178.1 68.8754 1169.87 68.8754C1161.65 68.8754 1154.32 70.7239 1147.89 74.4168C1141.45 78.1111 1136.42 83.4146 1132.78 90.3247C1129.15 97.2375 1127.33 105.281 1127.33 114.455C1127.33 123.632 1129.15 131.704 1132.78 138.675C1136.42 145.646 1141.45 151.009 1147.89 154.762C1154.32 158.516 1161.65 160.392 1169.87 160.392C1178.1 160.392 1185.42 158.516 1191.86 154.762Z" fill="white"/>
<path d="M1279.27 52.6093V176.837H1258.89V52.6093H1279.27Z" fill="white"/>
<path d="M1413.68 176.837H1393.3L1332 84.0682V176.837H1311.62V52.4301H1332L1393.3 145.02V52.4301H1413.68V176.837Z" fill="white"/>
<path d="M1526.29 52.6093V69.2322H1493.22V176.837H1472.85V69.2322H1439.6V52.6093H1526.29Z" fill="white"/>
<path d="M817.214 309.497H847.901V321.511H802.327V230.754H817.214V309.497Z" fill="white"/>
<path d="M950.41 302.967H912.41L905.881 321.511H890.341L922.857 230.624H940.094L972.61 321.511H956.939L950.41 302.967ZM946.232 290.823L931.475 248.645L916.589 290.823H946.232Z" fill="white"/>
<path d="M1083.08 282.596C1086.48 286.862 1088.18 291.695 1088.18 297.092C1088.18 301.706 1086.98 305.863 1084.59 309.562C1082.19 313.263 1078.73 316.18 1074.2 318.311C1069.68 320.446 1064.41 321.511 1058.4 321.511H1022.1V230.754H1056.71C1062.89 230.754 1068.2 231.799 1072.64 233.889C1077.08 235.977 1080.43 238.785 1082.69 242.311C1084.95 245.837 1086.09 249.777 1086.09 254.129C1086.09 259.352 1084.69 263.707 1081.91 267.187C1079.12 270.67 1075.38 273.239 1070.68 274.892C1075.55 275.764 1079.69 278.332 1083.08 282.596ZM1036.99 268.886H1055.4C1060.27 268.886 1064.08 267.774 1066.83 265.555C1069.57 263.335 1070.94 260.135 1070.94 255.957C1070.94 251.865 1069.57 248.667 1066.83 246.359C1064.08 244.054 1060.27 242.899 1055.4 242.899H1036.99V268.886ZM1068.98 305.71C1071.85 303.274 1073.29 299.879 1073.29 295.524C1073.29 291.084 1071.77 287.558 1068.72 284.947C1065.67 282.335 1061.62 281.03 1056.58 281.03H1036.99V309.366H1057.1C1062.15 309.366 1066.11 308.149 1068.98 305.71Z" fill="white"/>
<path d="M1153.21 319.225C1148.33 317.093 1144.5 314.067 1141.72 310.15C1138.93 306.232 1137.54 301.662 1137.54 296.439H1153.47C1153.82 300.356 1155.36 303.578 1158.11 306.101C1160.85 308.628 1164.7 309.889 1169.66 309.889C1174.8 309.889 1178.8 308.648 1181.68 306.167C1184.55 303.685 1185.99 300.487 1185.99 296.569C1185.99 293.523 1185.09 291.041 1183.31 289.126C1181.52 287.212 1179.3 285.73 1176.65 284.686C1173.99 283.64 1170.31 282.51 1165.61 281.291C1159.69 279.723 1154.88 278.136 1151.18 276.525C1147.48 274.914 1144.33 272.411 1141.72 269.016C1139.11 265.621 1137.8 261.095 1137.8 255.434C1137.8 250.211 1139.11 245.641 1141.72 241.724C1144.33 237.806 1147.99 234.802 1152.69 232.712C1157.39 230.624 1162.83 229.579 1169.01 229.579C1177.8 229.579 1185.01 231.778 1190.62 236.173C1196.24 240.571 1199.35 246.599 1199.96 254.259H1183.5C1183.24 250.952 1181.68 248.121 1178.8 245.772C1175.93 243.421 1172.14 242.246 1167.44 242.246C1163.18 242.246 1159.69 243.335 1157 245.511C1154.3 247.687 1152.95 250.821 1152.95 254.912C1152.95 257.699 1153.8 259.985 1155.49 261.768C1157.19 263.553 1159.35 264.968 1161.96 266.012C1164.57 267.056 1168.14 268.19 1172.67 269.408C1178.67 271.062 1183.57 272.717 1187.36 274.37C1191.14 276.025 1194.36 278.57 1197.02 282.009C1199.68 285.449 1201 290.04 1201 295.785C1201 300.401 1199.76 304.753 1197.28 308.844C1194.8 312.937 1191.19 316.223 1186.44 318.703C1181.7 321.184 1176.1 322.424 1169.66 322.424C1163.57 322.424 1158.08 321.359 1153.21 319.225Z" fill="white"/>
</g>
<defs>
<filter id="filter0_d_20_22" x="0.885498" y="0.107178" width="1529.41" height="367.11" filterUnits="userSpaceOnUse" color-interpolation-filters="sRGB">
<feFlood flood-opacity="0" result="BackgroundImageFix"/>
<feColorMatrix in="SourceAlpha" type="matrix" values="0 0 0 0 0 0 0 0 0 0 0 0 0 0 0 0 0 0 127 0" result="hardAlpha"/>
<feOffset dy="4"/>
<feGaussianBlur stdDeviation="2"/>
<feComposite in2="hardAlpha" operator="out"/>
<feColorMatrix type="matrix" values="0 0 0 0 0 0 0 0 0 0 0 0 0 0 0 0 0 0 0.25 0"/>
<feBlend mode="normal" in2="BackgroundImageFix" result="effect1_dropShadow_20_22"/>
<feBlend mode="normal" in="SourceGraphic" in2="effect1_dropShadow_20_22" result="shape"/>
</filter>
</defs>
</svg>
